<svg width="1080" height="1298" viewBox="0 0 1080 1298" fill="none" xmlns="http://www.w3.org/2000/svg">
<path fill-rule="evenodd" clip-rule="evenodd" d="M499.941 377.201C502.708 378.029 506.025 376.46 508.277 372.912L741.958 4.51094C744.344 0.7473 747.585 -0.549523 750.228 0.206147L829.72 23.7027C827.077 22.9471 823.836 24.2439 821.449 28.0075L587.769 396.409C585.517 399.957 582.2 401.526 579.433 400.698L499.941 377.201Z" fill="#BBBBBB"/>
<path fill-rule="evenodd" clip-rule="evenodd" d="M750.239 0.226562C752.882 0.982233 754.929 3.7904 754.929 8.23673V190.414C754.929 193.118 754.094 195.92 752.615 198.179L535.953 529.077C532.032 535.069 533.596 541.653 537.873 543.149L617.365 566.646C613.088 565.15 611.524 558.566 615.445 552.573L832.107 221.676C833.586 219.417 834.421 216.615 834.421 213.911V31.7333C834.421 27.287 832.374 24.4788 829.731 23.7231L750.239 0.226562Z" fill="#BBBBBB"/>
<path fill-rule="evenodd" clip-rule="evenodd" d="M537.867 543.144C538.936 543.518 540.175 543.574 541.54 543.223L993.246 427.119C994 426.925 994.718 426.935 995.389 427.115L1074.88 450.611C1074.21 450.432 1073.49 450.421 1072.74 450.615L621.031 566.72C619.667 567.071 618.428 567.015 617.359 566.641L537.867 543.144Z" fill="#BBBBBB"/>
<path fill-rule="evenodd" clip-rule="evenodd" d="M995.382 427.117C998.437 427.935 1000.51 432.261 1000.51 436.777V581.169C1000.51 586.676 996.602 592.811 992.412 593.888L611.906 691.686C611.302 691.841 610.752 691.828 610.238 691.693L689.73 715.19C690.244 715.325 690.794 715.337 691.398 715.182L1071.9 617.384C1076.09 616.307 1080 610.172 1080 604.665V460.273C1080 455.758 1077.93 451.431 1074.87 450.614L995.382 427.117Z" fill="#BBBBBB"/>
<path fill-rule="evenodd" clip-rule="evenodd" d="M610.252 691.685C609.054 691.371 608.059 690.394 607.065 689.34L262.902 325.451C261.479 323.947 260.68 321.616 260.68 318.972V149.321C260.68 141.859 266.446 136.044 271.123 137.369L350.615 160.865C345.937 159.54 340.172 165.355 340.172 172.817V342.468C340.172 345.113 340.971 347.444 342.393 348.948L686.557 712.836C687.551 713.891 688.546 714.868 689.744 715.182L610.252 691.685Z" fill="#BBBBBB"/>
<path fill-rule="evenodd" clip-rule="evenodd" d="M271.109 137.359C272 137.612 272.852 138.123 273.617 138.932L497.534 375.687C498.246 376.439 499.065 376.94 499.939 377.201L579.431 400.698C578.557 400.437 577.738 399.936 577.025 399.183L353.108 162.428C352.344 161.62 351.492 161.108 350.601 160.856L271.109 137.359Z" fill="#BBBBBB"/>
<path fill-rule="evenodd" clip-rule="evenodd" d="M500.565 896.975C497.799 896.146 494.48 897.715 492.228 901.261L258.549 1269.66C256.161 1273.43 252.921 1274.72 250.277 1273.97L329.769 1297.46C332.413 1298.22 335.653 1296.92 338.04 1293.16L571.72 924.758C573.971 921.212 577.291 919.643 580.057 920.471L500.565 896.975Z" fill="#BBBBBB"/>
<path fill-rule="evenodd" clip-rule="evenodd" d="M250.276 1273.96C247.633 1273.2 245.586 1270.39 245.586 1265.94V1083.77C245.586 1081.06 246.421 1078.26 247.9 1076L464.561 745.106C468.485 739.113 466.919 732.528 462.644 731.031L542.136 754.528C546.411 756.025 547.977 762.61 544.053 768.602L327.392 1099.5C325.913 1101.76 325.078 1104.56 325.078 1107.27V1289.44C325.078 1293.89 327.124 1296.7 329.768 1297.45L250.276 1273.96Z" fill="#BBBBBB"/>
<path fill-rule="evenodd" clip-rule="evenodd" d="M462.643 731.072C461.574 730.698 460.336 730.641 458.972 730.992L7.26422 847.097C6.51006 847.291 5.79185 847.281 5.12109 847.102L84.6129 870.598C85.2837 870.778 86.0019 870.788 86.756 870.594L538.464 754.489C539.828 754.138 541.066 754.194 542.135 754.569L462.643 731.072Z" fill="#BBBBBB"/>
<path fill-rule="evenodd" clip-rule="evenodd" d="M5.12669 847.103C2.07101 846.287 4.95213e-06 841.963 4.80195e-06 837.443L0 693.056C-1.83142e-07 687.55 3.90359 681.415 8.09337 680.338L388.6 582.534C389.204 582.379 389.755 582.392 390.268 582.527L469.76 606.024C469.246 605.889 468.696 605.876 468.092 606.031L87.5852 703.835C83.3954 704.912 79.4918 711.046 79.4918 716.553L79.4918 860.94C79.4918 865.46 81.5628 869.783 84.6185 870.599L5.12669 847.103Z" fill="#BBBBBB"/>
<path fill-rule="evenodd" clip-rule="evenodd" d="M390.262 582.508C391.46 582.823 392.455 583.801 393.451 584.854L737.615 948.746C739.034 950.246 739.835 952.578 739.835 955.222V1124.88C739.835 1132.33 734.07 1138.15 729.391 1136.82L808.883 1160.32C813.562 1161.65 819.327 1155.83 819.327 1148.37V978.719C819.327 976.075 818.526 973.743 817.106 972.242L472.943 608.35C471.947 607.297 470.952 606.319 469.754 606.004L390.262 582.508Z" fill="#BBBBBB"/>
<path fill-rule="evenodd" clip-rule="evenodd" d="M729.387 1136.82C728.495 1136.57 727.644 1136.06 726.878 1135.25L502.962 898.499C502.25 897.746 501.432 897.246 500.559 896.984L580.05 920.481C580.924 920.742 581.742 921.243 582.454 921.996L806.37 1158.75C807.135 1159.56 807.987 1160.07 808.879 1160.32L729.387 1136.82Z" fill="#BBBBBB"/>
<path d="M497.543 375.687C500.513 378.823 505.321 377.581 508.283 372.912L741.964 4.51094C746.738 -3.01634 754.926 -0.676353 754.926 8.21632V190.394C754.926 193.098 754.09 195.9 752.611 198.159L535.949 529.056C531.048 536.547 534.718 544.962 541.541 543.208L993.248 427.103C997.438 426.026 1000.52 431.252 1000.52 436.759V581.151C1000.52 586.657 996.611 592.793 992.421 593.869L611.915 691.668C609.903 692.185 608.48 690.836 607.06 689.33L262.897 325.442C261.474 323.937 260.675 321.607 260.675 318.962V149.311C260.675 140.428 268.846 133.879 273.626 138.932L497.543 375.687ZM502.973 898.5C500.006 895.363 495.194 896.606 492.232 901.272L258.552 1269.68C253.777 1277.2 245.591 1274.86 245.591 1265.97V1083.79C245.591 1081.08 246.426 1078.28 247.905 1076.03L464.566 745.127C469.472 737.636 465.797 729.22 458.978 730.972L7.26982 847.078C3.08003 848.155 4.9851e-06 842.935 4.80195e-06 837.423L0 693.036C-1.83142e-07 687.529 3.90359 681.395 8.09337 680.318L388.6 582.514C390.613 581.997 392.035 583.348 393.458 584.852L737.621 948.744C739.04 950.245 739.842 952.577 739.842 955.221V1124.87C739.842 1133.75 731.671 1140.3 726.889 1135.25L502.973 898.5Z" fill="#FEFBFB"/>
</svg>
