<svg width="1029" height="258" viewBox="0 0 1029 258" fill="none" xmlns="http://www.w3.org/2000/svg">
<path d="M147.031 69.9919C147.908 70.8686 149.329 70.8673 150.204 69.9889L219.26 0.664203C220.671 -0.752314 223.09 0.246968 223.09 2.24634V43.2062C223.09 43.814 222.843 44.3958 222.406 44.8182L158.38 106.694C156.931 108.095 158.016 110.199 160.032 110.199L293.517 110.199C294.755 110.199 295.665 111.552 295.665 112.79V145.254C295.665 146.492 294.512 147.646 293.274 147.646L180.829 147.646C180.234 147.646 179.814 147.259 179.394 146.839L77.6894 45.1349C77.269 44.7144 77.0327 44.1442 77.0327 43.5496L77.0328 5.40626C77.0328 3.40899 79.4476 2.40875 80.8598 3.82104L147.031 69.9919Z" fill="black"/>
<path d="M148.635 187.851C147.758 186.975 146.336 186.976 145.461 187.855L76.4055 257.179C74.9944 258.596 72.5753 257.596 72.5753 255.597V214.637C72.5753 214.029 72.8221 213.448 73.2592 213.025L137.285 151.149C138.734 149.748 137.649 147.644 135.633 147.644H2.14833C0.910187 147.644 1.47316e-06 146.292 1.41904e-06 145.053L0 112.59C-5.41207e-08 111.351 1.15356 110.198 2.3917 110.198L114.836 110.198C115.431 110.198 115.851 110.584 116.272 111.004L217.976 212.709C218.396 213.129 218.633 213.699 218.633 214.294V252.437C218.633 254.434 216.218 255.435 214.806 254.022L148.635 187.851Z" fill="black"/>
<path d="M838.635 208.71C826.972 208.71 816.343 206.127 806.746 200.96C797.15 195.792 789.547 188.78 783.937 179.922C778.475 170.916 775.743 160.951 775.743 150.026C775.743 138.954 778.548 128.988 784.158 120.13C789.768 111.125 797.445 104.112 807.189 99.0926C816.933 93.9255 827.784 91.3419 839.742 91.3419C851.553 91.3419 862.183 93.7778 871.631 98.6497C881.08 103.374 888.461 110.017 893.776 118.58C899.239 127.143 901.97 136.739 901.97 147.369C901.97 152.072 901.642 155.735 900.985 158.359C900.805 159.077 900.142 159.548 899.401 159.548H805.776C804.68 159.548 803.862 160.561 804.163 161.615C806.047 168.206 809.935 173.644 815.826 177.929C822.469 182.653 829.925 185.015 838.192 185.015C851.387 185.015 861.029 181.323 867.118 173.938C867.457 173.527 867.957 173.278 868.489 173.278H895.345C896.588 173.278 897.417 174.555 896.864 175.668C892.398 184.66 885.685 192.278 876.724 198.524C866.981 205.315 854.284 208.71 838.635 208.71ZM872.066 139.397C873.119 139.397 873.929 138.457 873.683 137.433C872.256 131.489 868.545 126.385 862.552 122.123C856.056 117.399 848.453 115.037 839.742 115.037C830.589 115.037 822.691 117.325 816.047 121.902C810.214 125.879 806.166 130.988 803.905 137.227C803.515 138.301 804.341 139.397 805.483 139.397H872.066Z" fill="black"/>
<path fill-rule="evenodd" clip-rule="evenodd" d="M711.261 198.955C716.428 203.679 723.736 206.041 733.184 206.041H760.253C761.203 206.041 761.973 205.271 761.973 204.321V180.08C761.973 179.13 761.203 178.36 760.253 178.36H740.271C734.808 178.36 732.077 175.924 732.077 171.052V121.839C732.077 120.889 732.847 120.119 733.797 120.119H760.253C761.203 120.119 761.973 119.349 761.973 118.399V95.7075C761.973 94.7576 761.203 93.9876 760.253 93.9876H733.797C732.847 93.9876 732.077 93.2176 732.077 92.2677V62.0471C732.077 61.0972 731.307 60.3272 730.357 60.3272H705.23C704.28 60.3272 703.51 61.0972 703.51 62.0471V178.803C703.51 187.366 706.094 194.083 711.261 198.955Z" fill="black"/>
<path d="M623.279 208.705C613.24 208.705 603.792 206.269 594.934 201.397C586.076 196.377 578.915 189.438 573.453 180.58C568.138 171.575 565.481 161.388 565.481 150.02C565.481 138.653 568.138 128.54 573.453 119.682C578.915 110.676 586.076 103.737 594.934 98.8654C603.792 93.8458 613.24 91.3361 623.279 91.3361C631.547 91.3361 638.928 92.6648 645.424 95.3222C651.771 97.9188 656.921 101.361 660.872 105.649C661.048 105.841 661.296 105.952 661.557 105.952C662.064 105.952 662.476 105.54 662.476 105.032V52.7521C662.476 51.8022 663.246 51.0322 664.196 51.0322H689.102C690.051 51.0322 690.821 51.8022 690.821 52.7521V204.327C690.821 205.277 690.051 206.047 689.102 206.047H667.618C666.813 206.047 666.115 205.489 665.939 204.703L663.547 194.03C663.439 193.546 663.01 193.203 662.514 193.203C662.208 193.203 661.918 193.336 661.714 193.564C657.761 197.978 652.479 201.622 645.867 204.497C639.224 207.302 631.694 208.705 623.279 208.705ZM628.151 183.016C634.499 183.016 640.257 181.688 645.424 179.03C650.739 176.225 654.873 172.313 657.825 167.293C660.926 162.274 662.476 156.516 662.476 150.02C662.476 143.524 660.926 137.767 657.825 132.747C654.873 127.728 650.739 123.815 645.424 121.01C640.257 118.205 634.499 116.803 628.151 116.803C621.95 116.803 616.193 118.205 610.878 121.01C605.711 123.815 601.577 127.728 598.477 132.747C595.524 137.767 594.048 143.524 594.048 150.02C594.048 156.516 595.524 162.274 598.477 167.293C601.577 172.313 605.711 176.225 610.878 179.03C616.045 181.688 621.803 183.016 628.151 183.016Z" fill="black"/>
<path d="M551.3 204.334C551.3 205.284 550.53 206.054 549.58 206.054H524.674C523.724 206.054 522.954 205.284 522.954 204.334V95.72C522.954 94.7701 523.724 94.0001 524.674 94.0001H549.58C550.53 94.0001 551.3 94.7701 551.3 95.72V204.334ZM552.185 73.4569C552.185 74.4068 551.415 75.1768 550.466 75.1768H524.01C523.06 75.1768 522.29 74.4068 522.29 73.4569V50.7657C522.29 49.8158 523.06 49.0457 524.01 49.0457H550.466C551.415 49.0457 552.185 49.8158 552.185 50.7657V73.4569Z" fill="black"/>
<path d="M507.751 204.327C507.751 205.277 506.981 206.047 506.031 206.047H393.209C392.259 206.047 391.489 205.277 391.489 204.327V52.7521C391.489 51.8022 392.259 51.0322 393.209 51.0322H420.551C421.501 51.0322 422.271 51.8022 422.271 52.7521V174.653C422.271 175.603 423.041 176.373 423.991 176.373H506.031C506.981 176.373 507.751 177.143 507.751 178.093V204.327Z" fill="black"/>
<path d="M974.718 147.695C974.045 148.368 974.046 149.458 974.72 150.13L1027.91 203.109C1028.99 204.191 1028.23 206.047 1026.69 206.047H995.267C994.801 206.047 994.354 205.858 994.03 205.522L946.561 156.403C945.486 155.291 943.604 156.051 943.604 157.598V204.327C943.604 205.277 942.834 206.047 941.884 206.047H916.978C916.028 206.047 915.258 205.277 915.258 204.327V173.585C915.258 173.129 915.439 172.691 915.762 172.369L993.635 94.4973C993.958 94.1748 994.395 93.9936 994.852 93.9936H1024.27C1025.8 93.9936 1026.57 95.8462 1025.48 96.9297L974.718 147.695Z" fill="black"/>
<path d="M943.604 128.777C943.604 129.233 943.423 129.671 943.101 129.993L918.194 154.9C917.11 155.983 915.258 155.216 915.258 153.684V52.7521C915.258 51.8022 916.028 51.0322 916.978 51.0322H941.884C942.834 51.0322 943.604 51.8022 943.604 52.7521V128.777Z" fill="black"/>
</svg>
