<svg width="1080" height="271" viewBox="0 0 1080 271" fill="none" xmlns="http://www.w3.org/2000/svg">
<path d="M758.201 270.735C738.424 270.735 720.4 266.354 704.129 257.592C687.857 248.83 674.965 236.94 665.452 221.919C656.19 206.649 651.558 189.752 651.558 171.227C651.558 152.452 656.315 135.554 665.827 120.534C675.34 105.264 688.358 93.3731 704.88 84.8618C721.402 76.1001 739.801 71.7192 760.078 71.7192C780.105 71.7192 798.129 75.8498 814.15 84.1108C830.172 92.1214 842.688 103.386 851.7 117.906C860.963 132.425 865.594 148.697 865.594 166.721C865.594 174.695 865.037 180.907 863.924 185.356C863.619 186.574 862.494 187.373 861.239 187.373H702.484C700.626 187.373 699.237 189.091 699.748 190.877C702.943 202.054 709.535 211.275 719.524 218.54C730.789 226.551 743.431 230.556 757.45 230.556C779.824 230.556 796.173 224.295 806.498 211.773C807.072 211.076 807.92 210.654 808.822 210.654H854.361C856.468 210.654 857.874 212.819 856.936 214.706C849.364 229.953 837.981 242.872 822.787 253.462C806.265 264.977 784.736 270.735 758.201 270.735ZM814.887 153.203C816.672 153.203 818.047 151.609 817.63 149.873C815.209 139.794 808.917 131.141 798.755 123.914C787.74 115.903 774.848 111.898 760.078 111.898C744.557 111.898 731.165 115.778 719.899 123.538C710.008 130.282 703.145 138.944 699.31 149.524C698.65 151.346 700.049 153.203 701.987 153.203H814.887Z" fill="black"/>
<path fill-rule="evenodd" clip-rule="evenodd" d="M542.219 254.193C550.981 262.203 563.372 266.209 579.394 266.209H625.292C626.903 266.209 628.209 264.903 628.209 263.292V222.188C628.209 220.577 626.903 219.271 625.292 219.271H591.41C582.147 219.271 577.516 215.141 577.516 206.88V123.431C577.516 121.82 578.822 120.515 580.432 120.515H625.292C626.903 120.515 628.209 119.209 628.209 117.598V79.1218C628.209 77.5112 626.903 76.2055 625.292 76.2055H580.432C578.822 76.2055 577.516 74.8998 577.516 73.2891V22.0457C577.516 20.4351 576.21 19.1294 574.6 19.1294H531.993C530.382 19.1294 529.076 20.4351 529.076 22.0457V220.022C529.076 234.542 533.457 245.932 542.219 254.193Z" fill="black"/>
<path d="M393.033 270.725C376.011 270.725 359.989 266.594 344.969 258.333C329.949 249.822 317.808 238.056 308.546 223.036C299.534 207.766 295.028 190.493 295.028 171.217C295.028 151.941 299.534 134.793 308.546 119.773C317.808 104.503 329.949 92.7374 344.969 84.4764C359.989 75.9651 376.011 71.7094 393.033 71.7094C407.052 71.7094 419.569 73.9624 430.583 78.4684C441.346 82.8713 450.077 88.7083 456.777 95.9793C457.076 96.3043 457.496 96.4924 457.938 96.4924C458.799 96.4924 459.497 95.7945 459.497 94.9337V6.28467C459.497 4.674 460.803 3.36829 462.413 3.36829H504.645C506.255 3.36829 507.561 4.674 507.561 6.28467V263.302C507.561 264.913 506.255 266.219 504.645 266.219H468.215C466.851 266.219 465.668 265.272 465.37 263.94L461.313 245.841C461.129 245.022 460.402 244.44 459.562 244.44C459.044 244.44 458.552 244.665 458.206 245.052C451.503 252.536 442.546 258.716 431.334 263.59C420.069 268.347 407.302 270.725 393.033 270.725ZM401.294 227.167C412.059 227.167 421.822 224.914 430.583 220.408C439.595 215.651 446.605 209.017 451.611 200.506C456.868 191.995 459.497 182.232 459.497 171.217C459.497 160.202 456.868 150.439 451.611 141.928C446.605 133.417 439.595 126.783 430.583 122.026C421.822 117.27 412.059 114.892 401.294 114.892C390.78 114.892 381.017 117.27 372.005 122.026C363.244 126.783 356.234 133.417 350.977 141.928C345.971 150.439 343.467 160.202 343.467 171.217C343.467 182.232 345.971 191.995 350.977 200.506C356.234 209.017 363.244 215.651 372.005 220.408C380.767 224.914 390.53 227.167 401.294 227.167Z" fill="black"/>
<path d="M270.982 263.314C270.982 264.924 269.676 266.23 268.065 266.23H225.834C224.223 266.23 222.918 264.924 222.918 263.314V79.143C222.918 77.5323 224.223 76.2266 225.834 76.2266H268.065C269.676 76.2266 270.982 77.5323 270.982 79.143V263.314ZM272.484 41.3927C272.484 43.0034 271.178 44.3091 269.567 44.3091H224.707C223.097 44.3091 221.791 43.0034 221.791 41.3927V2.91637C221.791 1.3057 223.097 0 224.707 0H269.567C271.178 0 272.484 1.30571 272.484 2.91638V41.3927Z" fill="black"/>
<path d="M197.138 263.302C197.138 264.913 195.832 266.219 194.221 266.219H2.91636C1.30569 266.219 0 264.913 0 263.302V6.28468C0 4.67401 1.30569 3.36829 2.91636 3.36829H49.2782C50.8889 3.36829 52.1946 4.674 52.1946 6.28467V212.985C52.1946 214.596 53.5003 215.902 55.111 215.902H194.221C195.832 215.902 197.138 217.207 197.138 218.818V263.302Z" fill="black"/>
<path d="M988.949 167.274C987.808 168.414 987.81 170.264 988.953 171.402L1079.14 261.236C1080.98 263.071 1079.68 266.218 1077.08 266.218H1023.79C1023 266.218 1022.25 265.897 1021.7 265.329L941.205 182.039C939.382 180.153 936.191 181.444 936.191 184.066V263.302C936.191 264.913 934.886 266.218 933.275 266.218H891.042C889.431 266.218 888.125 264.913 888.125 263.302V211.174C888.125 210.401 888.433 209.659 888.98 209.112L1021.03 77.0698C1021.57 76.5229 1022.31 76.2156 1023.09 76.2156H1072.97C1075.56 76.2156 1076.87 79.3569 1075.03 81.1942L988.949 167.274Z" fill="black"/>
<path d="M936.191 135.196C936.191 135.969 935.884 136.711 935.337 137.258L893.104 179.491C891.267 181.328 888.125 180.027 888.125 177.429V6.28467C888.125 4.674 889.431 3.36829 891.042 3.36829H933.275C934.886 3.36829 936.191 4.674 936.191 6.28467V135.196Z" fill="black"/>
</svg>
