<svg width="1080" height="271" viewBox="0 0 1080 271" fill="none" xmlns="http://www.w3.org/2000/svg">
<path d="M154.047 73.3321C154.965 74.2506 156.455 74.2492 157.372 73.3288L229.723 0.695899C231.201 -0.788215 233.736 0.258754 233.736 2.35354V45.268C233.736 45.9049 233.477 46.5144 233.019 46.957L165.938 111.786C164.419 113.254 165.556 115.458 167.668 115.458L307.524 115.458C308.821 115.458 309.774 116.875 309.774 118.173V152.186C309.774 153.483 308.566 154.691 307.269 154.691H189.458C188.835 154.691 188.394 154.287 187.954 153.846L81.3962 47.2888C80.9557 46.8483 80.7082 46.2508 80.7082 45.6279L80.7082 5.66426C80.7082 3.57167 83.2383 2.5237 84.7179 4.00338L154.047 73.3321Z" fill="black"/>
<path d="M155.728 196.816C154.809 195.897 153.319 195.899 152.403 196.819L80.0517 269.452C78.5733 270.936 76.0387 269.889 76.0387 267.794V224.88C76.0387 224.243 76.2973 223.633 76.7553 223.191L143.836 158.362C145.355 156.894 144.218 154.69 142.106 154.69L2.25085 154.69C0.953623 154.69 1.54345e-06 153.272 1.48675e-06 151.975L0 117.962C-5.67035e-08 116.665 1.20861 115.456 2.50584 115.456L120.317 115.456C120.94 115.456 121.38 115.861 121.82 116.301L228.378 222.859C228.819 223.299 229.066 223.897 229.066 224.52V264.483C229.066 266.576 226.536 267.624 225.056 266.144L155.728 196.816Z" fill="black"/>
<path d="M881.161 194.926C868.941 194.926 857.804 192.219 847.75 186.805C837.696 181.391 829.73 174.044 823.852 164.763C818.129 155.328 815.268 144.887 815.268 133.441C815.268 121.84 818.207 111.399 824.084 102.118C829.962 92.6829 838.006 85.3357 848.214 80.0766C858.423 74.6629 869.792 71.956 882.321 71.956C894.695 71.956 905.832 74.5082 915.732 79.6126C925.631 84.5623 933.365 91.5228 938.933 100.494C944.657 109.466 947.518 119.52 947.518 130.657C947.518 135.584 947.174 139.422 946.486 142.171C946.298 142.923 945.603 143.418 944.827 143.418H846.734C845.586 143.418 844.728 144.479 845.044 145.583C847.018 152.489 851.091 158.186 857.263 162.675C864.224 167.625 872.035 170.1 880.697 170.1C894.522 170.1 904.624 166.231 911.003 158.494C911.358 158.063 911.882 157.803 912.439 157.803H940.577C941.879 157.803 942.748 159.14 942.169 160.306C937.49 169.727 930.456 177.709 921.068 184.253C910.859 191.368 897.557 194.926 881.161 194.926ZM916.187 122.304C917.29 122.304 918.139 121.319 917.882 120.246C916.386 114.018 912.498 108.672 906.219 104.206C899.413 99.2568 891.447 96.7819 882.321 96.7819C872.731 96.7819 864.456 99.1794 857.495 103.974C851.383 108.142 847.143 113.494 844.773 120.031C844.365 121.156 845.23 122.304 846.427 122.304H916.187Z" fill="black"/>
<path fill-rule="evenodd" clip-rule="evenodd" d="M747.709 184.714C753.123 189.664 760.779 192.139 770.679 192.139H799.039C800.034 192.139 800.841 191.332 800.841 190.337V164.938C800.841 163.943 800.034 163.136 799.039 163.136H778.103C772.38 163.136 769.519 160.584 769.519 155.48V103.918C769.519 102.922 770.325 102.116 771.321 102.116H799.039C800.034 102.116 800.841 101.309 800.841 100.314V76.5395C800.841 75.5443 800.034 74.7375 799.039 74.7375H771.321C770.325 74.7375 769.519 73.9307 769.519 72.9355V41.2728C769.519 40.2776 768.712 39.4708 767.717 39.4708H741.39C740.395 39.4708 739.588 40.2776 739.588 41.2728V163.6C739.588 172.572 742.295 179.61 747.709 184.714Z" fill="black"/>
<path d="M655.527 194.923C645.009 194.923 635.109 192.371 625.829 187.267C616.548 182.008 609.046 174.738 603.323 165.457C597.755 156.022 594.97 145.349 594.97 133.438C594.97 121.528 597.755 110.933 603.323 101.652C609.046 92.2166 616.548 84.9467 625.829 79.8423C635.109 74.5832 645.009 71.9537 655.527 71.9537C664.189 71.9537 671.923 73.3458 678.729 76.13C685.379 78.8505 690.774 82.4571 694.913 86.9498C695.098 87.1506 695.358 87.2669 695.631 87.2669C696.163 87.2669 696.594 86.8357 696.594 86.3037V31.5284C696.594 30.5332 697.401 29.7264 698.396 29.7264H724.49C725.486 29.7264 726.292 30.5332 726.292 31.5284V190.337C726.292 191.332 725.486 192.139 724.49 192.139H701.981C701.138 192.139 700.407 191.554 700.223 190.731L697.716 179.548C697.603 179.042 697.153 178.682 696.635 178.682C696.314 178.682 696.01 178.821 695.796 179.06C691.655 183.685 686.12 187.503 679.193 190.515C672.232 193.454 664.344 194.923 655.527 194.923ZM660.631 168.009C667.283 168.009 673.315 166.617 678.729 163.833C684.297 160.894 688.628 156.795 691.722 151.536C694.97 146.277 696.594 140.244 696.594 133.438C696.594 126.633 694.97 120.6 691.722 115.341C688.628 110.082 684.297 105.983 678.729 103.044C673.315 100.105 667.283 98.6357 660.631 98.6357C654.135 98.6357 648.102 100.105 642.534 103.044C637.12 105.983 632.789 110.082 629.541 115.341C626.447 120.6 624.901 126.633 624.901 133.438C624.901 140.244 626.447 146.277 629.541 151.536C632.789 156.795 637.12 160.894 642.534 163.833C647.948 166.617 653.98 168.009 660.631 168.009Z" fill="black"/>
<path d="M580.114 190.344C580.114 191.339 579.307 192.146 578.312 192.146H552.217C551.222 192.146 550.415 191.339 550.415 190.344V76.5469C550.415 75.5517 551.222 74.7449 552.217 74.7449H578.312C579.307 74.7449 580.114 75.5517 580.114 76.5469V190.344ZM581.042 53.2214C581.042 54.2166 580.235 55.0234 579.24 55.0234H551.521C550.526 55.0234 549.719 54.2166 549.719 53.2214V29.4473C549.719 28.4521 550.526 27.6453 551.521 27.6453H579.24C580.235 27.6453 581.042 28.4521 581.042 29.4473V53.2214Z" fill="black"/>
<path d="M534.486 190.337C534.486 191.332 533.679 192.139 532.684 192.139H414.478C413.483 192.139 412.676 191.332 412.676 190.337V31.5284C412.676 30.5332 413.483 29.7264 414.478 29.7264H443.125C444.12 29.7264 444.927 30.5332 444.927 31.5284V159.247C444.927 160.242 445.734 161.049 446.729 161.049H532.684C533.679 161.049 534.486 161.855 534.486 162.851V190.337Z" fill="black"/>
<path d="M1023.74 131.002C1023.04 131.707 1023.04 132.85 1023.74 133.553L1079.47 189.06C1080.6 190.194 1079.8 192.139 1078.19 192.139H1045.27C1044.78 192.139 1044.31 191.94 1043.97 191.589L994.24 140.125C993.114 138.96 991.142 139.757 991.142 141.378V190.337C991.142 191.332 990.335 192.139 989.34 192.139H963.245C962.25 192.139 961.443 191.332 961.443 190.337V158.128C961.443 157.65 961.633 157.191 961.971 156.853L1043.56 75.2658C1043.9 74.9279 1044.36 74.738 1044.83 74.738H1075.65C1077.26 74.738 1078.06 76.679 1076.93 77.8142L1023.74 131.002Z" fill="black"/>
<path d="M991.142 111.181C991.142 111.659 990.952 112.118 990.614 112.456L964.519 138.551C963.384 139.686 961.443 138.882 961.443 137.277V31.5284C961.443 30.5332 962.25 29.7264 963.245 29.7264H989.34C990.335 29.7264 991.142 30.5332 991.142 31.5284V111.181Z" fill="black"/>
<path d="M429.41 223.874V226.136H422.474V243.779H420.061V226.136H413.125V223.874H429.41Z" fill="black"/>
<path d="M446.284 243.779V223.874H460.248V226.136H448.697V232.56H457.684V234.822H448.697V241.517H460.7V243.779H446.284Z" fill="black"/>
<path d="M493.785 238.682C493.363 239.808 492.76 240.783 491.975 241.608C491.191 242.412 490.266 243.025 489.201 243.447C488.155 243.869 487.009 244.08 485.763 244.08C483.873 244.08 482.234 243.668 480.847 242.844C479.48 242 478.414 240.813 477.65 239.285C476.906 237.757 476.534 235.938 476.534 233.827C476.534 231.716 476.906 229.896 477.65 228.368C478.414 226.84 479.48 225.664 480.847 224.84C482.234 223.995 483.853 223.573 485.703 223.573C486.989 223.573 488.135 223.754 489.141 224.116C490.146 224.458 491 224.98 491.704 225.684C492.428 226.368 493.001 227.212 493.423 228.217L491.041 229.333C490.598 228.187 489.955 227.323 489.11 226.739C488.286 226.136 487.21 225.835 485.883 225.835C484.536 225.835 483.35 226.156 482.325 226.8C481.299 227.423 480.495 228.328 479.912 229.514C479.349 230.7 479.068 232.138 479.068 233.827C479.068 235.495 479.339 236.933 479.882 238.139C480.425 239.326 481.199 240.24 482.204 240.884C483.209 241.507 484.396 241.819 485.763 241.819C487.09 241.819 488.246 241.487 489.231 240.823C490.216 240.14 490.93 239.124 491.372 237.777L493.785 238.682Z" fill="black"/>
<path d="M526.704 223.874V243.779H523.718L515.395 230.449L513.284 226.709H513.254L513.374 229.725V243.779H511.082V223.874H514.068L522.361 237.144L524.503 240.974H524.533L524.412 237.928V223.874H526.704Z" fill="black"/>
<path d="M553.918 223.573C555.808 223.573 557.437 223.995 558.804 224.84C560.191 225.664 561.257 226.84 562.001 228.368C562.765 229.896 563.147 231.716 563.147 233.827C563.147 235.938 562.765 237.757 562.001 239.285C561.257 240.813 560.191 242 558.804 242.844C557.437 243.668 555.808 244.08 553.918 244.08C552.028 244.08 550.39 243.668 549.002 242.844C547.635 242 546.57 240.813 545.806 239.285C545.062 237.757 544.69 235.938 544.69 233.827C544.69 231.716 545.062 229.896 545.806 228.368C546.57 226.84 547.635 225.664 549.002 224.84C550.39 223.995 552.028 223.573 553.918 223.573ZM553.918 225.835C552.551 225.835 551.365 226.156 550.359 226.8C549.354 227.423 548.58 228.338 548.037 229.544C547.494 230.73 547.223 232.158 547.223 233.827C547.223 235.495 547.494 236.933 548.037 238.139C548.58 239.326 549.354 240.24 550.359 240.884C551.365 241.507 552.551 241.819 553.918 241.819C555.305 241.819 556.492 241.507 557.477 240.884C558.482 240.24 559.256 239.326 559.799 238.139C560.342 236.933 560.613 235.495 560.613 233.827C560.613 232.158 560.342 230.73 559.799 229.544C559.256 228.338 558.482 227.423 557.477 226.8C556.492 226.156 555.305 225.835 553.918 225.835Z" fill="black"/>
<path d="M583.535 241.517H594.935V243.779H581.122V223.874H583.535V241.517Z" fill="black"/>
<path d="M619.128 223.573C621.018 223.573 622.647 223.995 624.014 224.84C625.401 225.664 626.467 226.84 627.211 228.368C627.975 229.896 628.357 231.716 628.357 233.827C628.357 235.938 627.975 237.757 627.211 239.285C626.467 240.813 625.401 242 624.014 242.844C622.647 243.668 621.018 244.08 619.128 244.08C617.238 244.08 615.6 243.668 614.213 242.844C612.845 242 611.78 240.813 611.016 239.285C610.272 237.757 609.9 235.938 609.9 233.827C609.9 231.716 610.272 229.896 611.016 228.368C611.78 226.84 612.845 225.664 614.213 224.84C615.6 223.995 617.238 223.573 619.128 223.573ZM619.128 225.835C617.761 225.835 616.575 226.156 615.57 226.8C614.564 227.423 613.79 228.338 613.247 229.544C612.705 230.73 612.433 232.158 612.433 233.827C612.433 235.495 612.705 236.933 613.247 238.139C613.79 239.326 614.564 240.24 615.57 240.884C616.575 241.507 617.761 241.819 619.128 241.819C620.516 241.819 621.702 241.507 622.687 240.884C623.692 240.24 624.466 239.326 625.009 238.139C625.552 236.933 625.823 235.495 625.823 233.827C625.823 232.158 625.552 230.73 625.009 229.544C624.466 228.338 623.692 227.423 622.687 226.8C621.702 226.156 620.516 225.835 619.128 225.835Z" fill="black"/>
<path d="M654.355 244.08C652.465 244.08 650.826 243.668 649.439 242.844C648.072 242 647.006 240.813 646.242 239.285C645.498 237.757 645.126 235.938 645.126 233.827C645.126 231.716 645.518 229.896 646.302 228.368C647.107 226.84 648.222 225.664 649.65 224.84C651.077 223.995 652.716 223.573 654.566 223.573C656.536 223.573 658.134 223.945 659.361 224.689C660.607 225.433 661.613 226.579 662.377 228.127L660.175 229.333C659.733 228.187 659.029 227.323 658.064 226.739C657.119 226.136 655.953 225.835 654.566 225.835C653.219 225.835 652.022 226.156 650.977 226.8C649.952 227.423 649.137 228.338 648.534 229.544C647.951 230.73 647.659 232.158 647.659 233.827C647.659 235.495 647.911 236.933 648.413 238.139C648.936 239.326 649.7 240.24 650.705 240.884C651.731 241.507 652.977 241.819 654.445 241.819C655.269 241.819 656.033 241.718 656.737 241.517C657.461 241.296 658.084 240.974 658.607 240.552C659.15 240.13 659.572 239.597 659.874 238.954C660.175 238.31 660.326 237.556 660.326 236.692V235.998H653.993V233.736H662.528V243.779H660.628L660.507 240.069L661.02 240.16C660.497 241.406 659.672 242.372 658.547 243.055C657.421 243.739 656.023 244.08 654.355 244.08Z" fill="black"/>
<path d="M683.235 223.874V243.779H680.822V223.874H683.235Z" fill="black"/>
<path d="M718.276 243.779H715.713L713.601 238.26H704.584L702.473 243.779H699.94L707.69 223.874H710.556L718.276 243.779ZM705.459 235.998H712.727L709.078 226.197L705.459 235.998Z" fill="black"/>
<path d="M756.726 243.779V223.874H770.689V226.136H759.139V232.56H768.126V234.822H759.139V241.517H771.142V243.779H756.726Z" fill="black"/>
<path d="M813.982 223.874V243.779H811.569V223.874H813.982Z" fill="black"/>
<path d="M848.781 223.874V243.779H845.796L837.472 230.449L835.361 226.709H835.331L835.451 229.725V243.779H833.159V223.874H836.145L844.439 237.144L846.58 240.974H846.61L846.489 237.928V223.874H848.781Z" fill="black"/>
<path d="M875.995 223.573C877.885 223.573 879.514 223.995 880.881 224.84C882.268 225.664 883.334 226.84 884.078 228.368C884.842 229.896 885.224 231.716 885.224 233.827C885.224 235.938 884.842 237.757 884.078 239.285C883.334 240.813 882.268 242 880.881 242.844C879.514 243.668 877.885 244.08 875.995 244.08C874.106 244.08 872.467 243.668 871.08 242.844C869.713 242 868.647 240.813 867.883 239.285C867.139 237.757 866.767 235.938 866.767 233.827C866.767 231.716 867.139 229.896 867.883 228.368C868.647 226.84 869.713 225.664 871.08 224.84C872.467 223.995 874.106 223.573 875.995 223.573ZM875.995 225.835C874.628 225.835 873.442 226.156 872.437 226.8C871.432 227.423 870.657 228.338 870.115 229.544C869.572 230.73 869.3 232.158 869.3 233.827C869.3 235.495 869.572 236.933 870.115 238.139C870.657 239.326 871.432 240.24 872.437 240.884C873.442 241.507 874.628 241.819 875.995 241.819C877.383 241.819 878.569 241.507 879.554 240.884C880.559 240.24 881.333 239.326 881.876 238.139C882.419 236.933 882.691 235.495 882.691 233.827C882.691 232.158 882.419 230.73 881.876 229.544C881.333 228.338 880.559 227.423 879.554 226.8C878.569 226.156 877.383 225.835 875.995 225.835Z" fill="black"/>
<path d="M918.169 223.874L910.63 243.779H907.885L900.316 223.874H902.909L907.976 237.627L909.243 241.577L910.509 237.657L915.576 223.874H918.169Z" fill="black"/>
<path d="M949.017 243.779H946.454L944.343 238.26H935.325L933.214 243.779H930.681L938.432 223.874H941.297L949.017 243.779ZM936.2 235.998H943.468L939.819 226.197L936.2 235.998Z" fill="black"/>
<path d="M981.097 238.682C980.674 239.808 980.071 240.783 979.287 241.608C978.503 242.412 977.578 243.025 976.513 243.447C975.467 243.869 974.321 244.08 973.074 244.08C971.185 244.08 969.546 243.668 968.159 242.844C966.792 242 965.726 240.813 964.962 239.285C964.218 237.757 963.846 235.938 963.846 233.827C963.846 231.716 964.218 229.896 964.962 228.368C965.726 226.84 966.792 225.664 968.159 224.84C969.546 223.995 971.164 223.573 973.014 223.573C974.301 223.573 975.447 223.754 976.452 224.116C977.457 224.458 978.312 224.98 979.016 225.684C979.739 226.368 980.312 227.212 980.735 228.217L978.352 229.333C977.91 228.187 977.266 227.323 976.422 226.739C975.598 226.136 974.522 225.835 973.195 225.835C971.848 225.835 970.662 226.156 969.636 226.8C968.611 227.423 967.807 228.328 967.224 229.514C966.661 230.7 966.379 232.138 966.379 233.827C966.379 235.495 966.651 236.933 967.194 238.139C967.736 239.326 968.511 240.24 969.516 240.884C970.521 241.507 971.707 241.819 973.074 241.819C974.401 241.819 975.558 241.487 976.543 240.823C977.528 240.14 978.242 239.124 978.684 237.777L981.097 238.682ZM971.355 243.658L972.622 242.904C973.808 243.286 974.653 243.799 975.155 244.442C975.658 245.106 975.909 245.88 975.909 246.765C975.909 247.73 975.568 248.554 974.884 249.238C974.2 249.921 973.326 250.263 972.26 250.263C971.637 250.263 971.084 250.182 970.601 250.022C970.139 249.861 969.737 249.65 969.395 249.388L969.968 247.639C970.25 247.82 970.541 247.981 970.843 248.122C971.164 248.262 971.546 248.333 971.989 248.333C972.552 248.333 973.014 248.152 973.376 247.79C973.738 247.428 973.919 246.905 973.919 246.222C973.919 245.699 973.728 245.247 973.346 244.865C972.964 244.483 972.3 244.08 971.355 243.658Z" fill="black"/>
<path d="M1006.42 223.573C1008.31 223.573 1009.93 223.995 1011.3 224.84C1012.69 225.664 1013.75 226.84 1014.5 228.368C1015.26 229.896 1015.64 231.716 1015.64 233.827C1015.64 235.938 1015.26 237.757 1014.5 239.285C1013.75 240.813 1012.69 242 1011.3 242.844C1009.93 243.668 1008.31 244.08 1006.42 244.08C1004.53 244.08 1002.89 243.668 1001.5 242.844C1000.13 242 999.067 240.813 998.303 239.285C997.559 237.757 997.187 235.938 997.187 233.827C997.187 231.716 997.559 229.896 998.303 228.368C999.067 226.84 1000.13 225.664 1001.5 224.84C1002.89 223.995 1004.53 223.573 1006.42 223.573ZM1006.42 225.835C1005.05 225.835 1003.86 226.156 1002.86 226.8C1001.85 227.423 1001.08 228.338 1000.54 229.544C999.992 230.73 999.721 232.158 999.721 233.827C999.721 235.495 999.992 236.933 1000.54 238.139C1001.08 239.326 1001.85 240.24 1002.86 240.884C1003.86 241.507 1005.05 241.819 1006.42 241.819C1007.8 241.819 1008.99 241.507 1009.97 240.884C1010.98 240.24 1011.75 239.326 1012.3 238.139C1012.84 236.933 1013.11 235.495 1013.11 233.827C1013.11 232.158 1012.84 230.73 1012.3 229.544C1011.75 228.338 1010.98 227.423 1009.97 226.8C1008.99 226.156 1007.8 225.835 1006.42 225.835ZM1011.84 217.33C1011.78 218.215 1011.61 218.959 1011.33 219.562C1011.07 220.165 1010.7 220.617 1010.22 220.919C1009.75 221.221 1009.17 221.371 1008.47 221.371C1007.9 221.371 1007.42 221.271 1007.02 221.07C1006.64 220.849 1006.31 220.607 1006.02 220.346C1005.74 220.085 1005.46 219.853 1005.18 219.652C1004.92 219.431 1004.63 219.321 1004.3 219.321C1003.86 219.321 1003.53 219.512 1003.31 219.894C1003.09 220.255 1002.93 220.758 1002.83 221.401H1000.93C1001.03 220.074 1001.35 219.069 1001.89 218.386C1002.46 217.702 1003.27 217.36 1004.33 217.36C1004.88 217.36 1005.34 217.471 1005.72 217.692C1006.12 217.893 1006.47 218.124 1006.75 218.386C1007.05 218.647 1007.33 218.888 1007.59 219.109C1007.85 219.311 1008.13 219.411 1008.44 219.411C1008.9 219.411 1009.24 219.23 1009.46 218.868C1009.68 218.486 1009.84 217.973 1009.94 217.33H1011.84Z" fill="black"/>
<path d="M1033.62 243.779V223.874H1047.58V226.136H1036.03V232.56H1045.02V234.822H1036.03V241.517H1048.04V243.779H1033.62Z" fill="black"/>
<path d="M1071.91 223.573C1073.66 223.573 1075.17 223.935 1076.44 224.659C1077.7 225.362 1078.76 226.408 1079.6 227.795L1077.58 229.363C1076.84 228.076 1075.99 227.172 1075.05 226.649C1074.12 226.106 1073 225.835 1071.67 225.835C1070.6 225.835 1069.72 225.986 1069.02 226.287C1068.33 226.589 1067.83 226.991 1067.51 227.493C1067.19 227.976 1067.03 228.529 1067.03 229.152C1067.03 229.856 1067.25 230.479 1067.69 231.022C1068.13 231.545 1069.02 231.957 1070.34 232.258L1074.66 233.224C1076.57 233.646 1077.89 234.289 1078.64 235.154C1079.4 235.998 1079.78 237.054 1079.78 238.32C1079.78 239.446 1079.46 240.451 1078.82 241.336C1078.19 242.201 1077.31 242.874 1076.16 243.357C1075.02 243.839 1073.67 244.08 1072.12 244.08C1070.68 244.08 1069.4 243.889 1068.29 243.507C1067.21 243.105 1066.27 242.573 1065.49 241.909C1064.7 241.246 1064.06 240.502 1063.56 239.677L1065.67 237.958C1066.05 238.722 1066.54 239.396 1067.15 239.979C1067.75 240.562 1068.47 241.014 1069.32 241.336C1070.18 241.658 1071.17 241.819 1072.27 241.819C1073.3 241.819 1074.18 241.698 1074.93 241.457C1075.69 241.195 1076.27 240.823 1076.68 240.341C1077.08 239.838 1077.28 239.235 1077.28 238.531C1077.28 237.888 1077.07 237.315 1076.65 236.812C1076.22 236.29 1075.43 235.898 1074.26 235.636L1069.59 234.581C1068.36 234.299 1067.37 233.917 1066.6 233.435C1065.86 232.932 1065.32 232.349 1064.98 231.685C1064.65 231.002 1064.49 230.268 1064.49 229.484C1064.49 228.418 1064.78 227.443 1065.37 226.559C1065.97 225.654 1066.83 224.93 1067.93 224.387C1069.06 223.844 1070.38 223.573 1071.91 223.573Z" fill="black"/>
</svg>
