<svg width="1080" height="361" viewBox="0 0 1080 361" fill="none" xmlns="http://www.w3.org/2000/svg">
<path d="M758.198 270.727C738.421 270.727 720.397 266.346 704.126 257.585C687.854 248.823 674.962 236.932 665.449 221.912C656.187 206.642 651.556 189.745 651.556 171.22C651.556 152.445 656.312 135.547 665.825 120.528C675.338 105.257 688.355 93.3664 704.877 84.8551C721.399 76.0935 739.798 71.7126 760.075 71.7126C780.102 71.7126 798.126 75.8431 814.147 84.1041C830.168 92.1147 842.685 103.38 851.697 117.899C860.959 132.418 865.59 148.69 865.59 166.714C865.59 174.688 865.034 180.9 863.921 185.349C863.616 186.567 862.491 187.366 861.236 187.366H702.481C700.623 187.366 699.235 189.084 699.745 190.87C702.94 202.047 709.532 211.268 719.521 218.533C730.786 226.543 743.428 230.549 757.447 230.549C779.821 230.549 796.17 224.288 806.495 211.766C807.069 211.069 807.916 210.647 808.819 210.647H854.357C856.464 210.647 857.87 212.812 856.933 214.699C849.361 229.946 837.977 242.864 822.784 253.454C806.262 264.969 784.733 270.727 758.198 270.727ZM814.884 153.196C816.669 153.196 818.043 151.602 817.627 149.866C815.206 139.787 808.914 131.134 798.752 123.907C787.737 115.896 774.845 111.891 760.075 111.891C744.554 111.891 731.162 115.771 719.897 123.531C710.005 130.276 703.142 138.938 699.307 149.517C698.647 151.339 700.047 153.196 701.984 153.196H814.884Z" fill="black"/>
<path fill-rule="evenodd" clip-rule="evenodd" d="M542.218 254.201C550.98 262.211 563.372 266.217 579.393 266.217H625.291C626.902 266.217 628.208 264.911 628.208 263.3V222.196C628.208 220.585 626.902 219.279 625.291 219.279H591.409C582.146 219.279 577.515 215.149 577.515 206.888V123.44C577.515 121.829 578.821 120.523 580.432 120.523H625.291C626.902 120.523 628.208 119.217 628.208 117.607V79.1306C628.208 77.52 626.902 76.2143 625.291 76.2143H580.432C578.821 76.2143 577.515 74.9086 577.515 73.2979V22.0548C577.515 20.4441 576.21 19.1384 574.599 19.1384H531.992C530.382 19.1384 529.076 20.4441 529.076 22.0548V220.03C529.076 234.55 533.457 245.94 542.218 254.201Z" fill="black"/>
<path d="M393.031 270.723C376.008 270.723 359.987 266.593 344.967 258.332C329.947 249.821 317.806 238.055 308.543 223.035C299.531 207.765 295.025 190.492 295.025 171.216C295.025 151.941 299.531 134.793 308.543 119.773C317.806 104.502 329.947 92.7369 344.967 84.4759C359.987 75.9646 376.008 71.7089 393.031 71.7089C407.049 71.7089 419.566 73.9619 430.581 78.4679C441.343 82.8708 450.074 88.7077 456.774 95.9787C457.073 96.3037 457.493 96.4919 457.935 96.4919C458.796 96.4919 459.494 95.794 459.494 94.9331V6.28449C459.494 4.67383 460.8 3.36813 462.41 3.36813H504.641C506.252 3.36813 507.558 4.67383 507.558 6.28449V263.301C507.558 264.912 506.252 266.217 504.641 266.217H468.213C466.848 266.217 465.665 265.271 465.367 263.939L461.31 245.84C461.126 245.021 460.399 244.438 459.559 244.438C459.041 244.438 458.549 244.664 458.202 245.05C451.5 252.535 442.543 258.714 431.332 263.589C420.067 268.345 407.3 270.723 393.031 270.723ZM401.292 227.165C412.056 227.165 421.819 224.912 430.581 220.407C439.593 215.65 446.602 209.016 451.608 200.505C456.865 191.994 459.494 182.231 459.494 171.216C459.494 160.202 456.865 150.439 451.608 141.927C446.602 133.416 439.593 126.782 430.581 122.026C421.819 117.269 412.056 114.891 401.292 114.891C390.778 114.891 381.015 117.269 372.003 122.026C363.241 126.782 356.232 133.416 350.975 141.927C345.968 150.439 343.465 160.202 343.465 171.216C343.465 182.231 345.968 191.994 350.975 200.505C356.232 209.016 363.241 215.65 372.003 220.407C380.764 224.912 390.527 227.165 401.292 227.165Z" fill="black"/>
<path d="M270.981 263.312C270.981 264.923 269.675 266.229 268.065 266.229H225.834C224.223 266.229 222.917 264.923 222.917 263.312V79.1426C222.917 77.532 224.223 76.2263 225.834 76.2263H268.065C269.675 76.2263 270.981 77.532 270.981 79.1426V263.312ZM272.483 41.3925C272.483 43.0032 271.177 44.3089 269.567 44.3089H224.707C223.096 44.3089 221.791 43.0032 221.791 41.3925V2.91637C221.791 1.30571 223.096 0 224.707 0H269.567C271.177 0 272.483 1.3057 272.483 2.91637V41.3925Z" fill="black"/>
<path d="M197.137 263.301C197.137 264.912 195.831 266.217 194.221 266.217H2.91632C1.30566 266.217 0 264.912 0 263.301V6.2845C0 4.67384 1.30566 3.36813 2.91632 3.36813H49.278C50.8886 3.36813 52.1943 4.67383 52.1943 6.28449V212.984C52.1943 214.595 53.5001 215.901 55.1107 215.901H194.221C195.831 215.901 197.137 217.206 197.137 218.817V263.301Z" fill="black"/>
<path d="M988.949 167.273C987.808 168.414 987.81 170.263 988.953 171.401L1079.14 261.235C1080.98 263.07 1079.68 266.217 1077.08 266.217H1023.79C1023 266.217 1022.25 265.896 1021.7 265.327L941.205 182.038C939.383 180.153 936.192 181.443 936.192 184.065V263.301C936.192 264.911 934.886 266.217 933.275 266.217H891.043C889.432 266.217 888.126 264.911 888.126 263.301V211.173C888.126 210.4 888.433 209.658 888.98 209.111L1021.03 77.0693C1021.57 76.5224 1022.31 76.2151 1023.09 76.2151H1072.97C1075.56 76.2151 1076.87 79.3565 1075.03 81.1937L988.949 167.273Z" fill="black"/>
<path d="M936.192 135.195C936.192 135.969 935.885 136.711 935.338 137.257L893.105 179.49C891.268 181.327 888.126 180.026 888.126 177.428V6.28449C888.126 4.67383 889.432 3.36813 891.043 3.36813H933.275C934.886 3.36813 936.192 4.67383 936.192 6.28449V135.195Z" fill="black"/>
<path d="M27.0821 317.578V321.239H15.8562V349.792H11.9515V321.239H0.725635V317.578H27.0821Z" fill="black"/>
<path d="M54.3911 349.792V317.578H76.9893V321.239H58.2957V331.635H72.8406V335.296H58.2957V346.131H77.7214V349.792H54.3911Z" fill="black"/>
<path d="M131.266 341.543C130.583 343.365 129.607 344.943 128.338 346.277C127.069 347.579 125.572 348.571 123.848 349.255C122.156 349.938 120.301 350.28 118.283 350.28C115.225 350.28 112.573 349.613 110.328 348.279C108.115 346.912 106.39 344.992 105.154 342.519C103.95 340.046 103.348 337.102 103.348 333.685C103.348 330.268 103.95 327.324 105.154 324.851C106.39 322.378 108.115 320.474 110.328 319.14C112.573 317.773 115.192 317.09 118.186 317.09C120.268 317.09 122.123 317.383 123.75 317.969C125.377 318.522 126.76 319.368 127.899 320.507C129.07 321.613 129.997 322.98 130.681 324.607L126.825 326.413C126.109 324.558 125.068 323.159 123.701 322.215C122.367 321.239 120.626 320.751 118.479 320.751C116.299 320.751 114.379 321.271 112.719 322.313C111.06 323.321 109.758 324.786 108.815 326.705C107.903 328.625 107.448 330.952 107.448 333.685C107.448 336.386 107.887 338.712 108.766 340.665C109.644 342.584 110.897 344.065 112.524 345.106C114.151 346.115 116.071 346.619 118.283 346.619C120.431 346.619 122.302 346.082 123.896 345.009C125.491 343.902 126.646 342.259 127.362 340.079L131.266 341.543Z" fill="black"/>
<path d="M184.543 317.578V349.792H179.711L166.24 328.218L162.823 322.166H162.775L162.97 327.047V349.792H159.26V317.578H164.092L177.515 339.054L180.98 345.253H181.029L180.834 340.323V317.578H184.543Z" fill="black"/>
<path d="M228.586 317.09C231.645 317.09 234.281 317.773 236.493 319.14C238.738 320.474 240.463 322.378 241.667 324.851C242.903 327.324 243.522 330.268 243.522 333.685C243.522 337.102 242.903 340.046 241.667 342.519C240.463 344.992 238.738 346.912 236.493 348.279C234.281 349.613 231.645 350.28 228.586 350.28C225.528 350.28 222.876 349.613 220.631 348.279C218.418 346.912 216.693 344.992 215.457 342.519C214.253 340.046 213.651 337.102 213.651 333.685C213.651 330.268 214.253 327.324 215.457 324.851C216.693 322.378 218.418 320.474 220.631 319.14C222.876 317.773 225.528 317.09 228.586 317.09ZM228.586 320.751C226.374 320.751 224.454 321.271 222.827 322.313C221.2 323.321 219.947 324.802 219.069 326.754C218.19 328.674 217.751 330.984 217.751 333.685C217.751 336.386 218.19 338.712 219.069 340.665C219.947 342.584 221.2 344.065 222.827 345.106C224.454 346.115 226.374 346.619 228.586 346.619C230.832 346.619 232.751 346.115 234.346 345.106C235.973 344.065 237.225 342.584 238.104 340.665C238.982 338.712 239.422 336.386 239.422 333.685C239.422 330.984 238.982 328.674 238.104 326.754C237.225 324.802 235.973 323.321 234.346 322.313C232.751 321.271 230.832 320.751 228.586 320.751Z" fill="black"/>
<path d="M276.518 346.131H294.968V349.792H272.614V317.578H276.518V346.131Z" fill="black"/>
<path d="M334.123 317.09C337.182 317.09 339.817 317.773 342.03 319.14C344.275 320.474 346 322.378 347.203 324.851C348.44 327.324 349.058 330.268 349.058 333.685C349.058 337.102 348.44 340.046 347.203 342.519C346 344.992 344.275 346.912 342.03 348.279C339.817 349.613 337.182 350.28 334.123 350.28C331.064 350.28 328.412 349.613 326.167 348.279C323.954 346.912 322.23 344.992 320.993 342.519C319.789 340.046 319.187 337.102 319.187 333.685C319.187 330.268 319.789 327.324 320.993 324.851C322.23 322.378 323.954 320.474 326.167 319.14C328.412 317.773 331.064 317.09 334.123 317.09ZM334.123 320.751C331.91 320.751 329.99 321.271 328.363 322.313C326.736 323.321 325.484 324.802 324.605 326.754C323.727 328.674 323.287 330.984 323.287 333.685C323.287 336.386 323.727 338.712 324.605 340.665C325.484 342.584 326.736 344.065 328.363 345.106C329.99 346.115 331.91 346.619 334.123 346.619C336.368 346.619 338.288 346.115 339.882 345.106C341.509 344.065 342.762 342.584 343.64 340.665C344.519 338.712 344.958 336.386 344.958 333.685C344.958 330.984 344.519 328.674 343.64 326.754C342.762 324.802 341.509 323.321 339.882 322.313C338.288 321.271 336.368 320.751 334.123 320.751Z" fill="black"/>
<path d="M391.133 350.28C388.075 350.28 385.423 349.613 383.178 348.279C380.965 346.912 379.24 344.992 378.004 342.519C376.8 340.046 376.198 337.102 376.198 333.685C376.198 330.268 376.832 327.324 378.101 324.851C379.403 322.378 381.209 320.474 383.519 319.14C385.829 317.773 388.481 317.09 391.475 317.09C394.664 317.09 397.251 317.692 399.235 318.896C401.253 320.1 402.88 321.955 404.116 324.46L400.553 326.413C399.837 324.558 398.699 323.159 397.137 322.215C395.607 321.239 393.72 320.751 391.475 320.751C389.295 320.751 387.359 321.271 385.667 322.313C384.007 323.321 382.689 324.802 381.713 326.754C380.769 328.674 380.298 330.984 380.298 333.685C380.298 336.386 380.705 338.712 381.518 340.665C382.364 342.584 383.6 344.065 385.227 345.106C386.887 346.115 388.904 346.619 391.28 346.619C392.614 346.619 393.85 346.456 394.989 346.131C396.16 345.773 397.169 345.253 398.015 344.569C398.894 343.886 399.577 343.024 400.065 341.982C400.553 340.941 400.797 339.721 400.797 338.322V337.199H390.548V333.539H404.36V349.792H401.285L401.09 343.788L401.92 343.935C401.074 345.952 399.74 347.514 397.918 348.62C396.095 349.727 393.834 350.28 391.133 350.28Z" fill="black"/>
<path d="M437.874 317.578V349.792H433.969V317.578H437.874Z" fill="black"/>
<path d="M494.584 349.792H490.435L487.019 340.86H472.425L469.008 349.792H464.909L477.452 317.578H482.089L494.584 349.792ZM473.84 337.199H485.603L479.697 321.336L473.84 337.199Z" fill="black"/>
<path d="M556.812 349.792V317.578H579.41V321.239H560.716V331.635H575.261V335.296H560.716V346.131H580.142V349.792H556.812Z" fill="black"/>
<path d="M649.475 317.578V349.792H645.57V317.578H649.475Z" fill="black"/>
<path d="M705.795 317.578V349.792H700.962L687.492 328.218L684.075 322.166H684.026L684.221 327.047V349.792H680.512V317.578H685.344L698.766 339.054L702.232 345.253H702.28L702.085 340.323V317.578H705.795Z" fill="black"/>
<path d="M749.838 317.09C752.897 317.09 755.532 317.773 757.745 319.14C759.99 320.474 761.715 322.378 762.919 324.851C764.155 327.324 764.773 330.268 764.773 333.685C764.773 337.102 764.155 340.046 762.919 342.519C761.715 344.992 759.99 346.912 757.745 348.279C755.532 349.613 752.897 350.28 749.838 350.28C746.779 350.28 744.127 349.613 741.882 348.279C739.67 346.912 737.945 344.992 736.709 342.519C735.505 340.046 734.903 337.102 734.903 333.685C734.903 330.268 735.505 327.324 736.709 324.851C737.945 322.378 739.67 320.474 741.882 319.14C744.127 317.773 746.779 317.09 749.838 317.09ZM749.838 320.751C747.625 320.751 745.706 321.271 744.079 322.313C742.452 323.321 741.199 324.802 740.32 326.754C739.442 328.674 739.003 330.984 739.003 333.685C739.003 336.386 739.442 338.712 740.32 340.665C741.199 342.584 742.452 344.065 744.079 345.106C745.706 346.115 747.625 346.619 749.838 346.619C752.083 346.619 754.003 346.115 755.597 345.106C757.224 344.065 758.477 342.584 759.356 340.665C760.234 338.712 760.673 336.386 760.673 333.685C760.673 330.984 760.234 328.674 759.356 326.754C758.477 324.802 757.224 323.321 755.597 322.313C754.003 321.271 752.083 320.751 749.838 320.751Z" fill="black"/>
<path d="M818.093 317.578L805.89 349.792H801.449L789.198 317.578H793.396L801.595 339.835L803.645 346.229L805.695 339.884L813.895 317.578H818.093Z" fill="black"/>
<path d="M868.017 349.792H863.868L860.452 340.86H845.858L842.441 349.792H838.341L850.885 317.578H855.522L868.017 349.792ZM847.273 337.199H859.036L853.13 321.336L847.273 337.199Z" fill="black"/>
<path d="M919.934 341.543C919.251 343.365 918.275 344.943 917.006 346.277C915.737 347.579 914.24 348.571 912.515 349.255C910.823 349.938 908.969 350.28 906.951 350.28C903.892 350.28 901.241 349.613 898.995 348.279C896.783 346.912 895.058 344.992 893.822 342.519C892.618 340.046 892.016 337.102 892.016 333.685C892.016 330.268 892.618 327.324 893.822 324.851C895.058 322.378 896.783 320.474 898.995 319.14C901.241 317.773 903.86 317.09 906.854 317.09C908.936 317.09 910.791 317.383 912.418 317.969C914.045 318.522 915.427 319.368 916.566 320.507C917.738 321.613 918.665 322.98 919.348 324.607L915.493 326.413C914.777 324.558 913.735 323.159 912.369 322.215C911.035 321.239 909.294 320.751 907.146 320.751C904.966 320.751 903.047 321.271 901.387 322.313C899.728 323.321 898.426 324.786 897.482 326.705C896.571 328.625 896.116 330.952 896.116 333.685C896.116 336.386 896.555 338.712 897.433 340.665C898.312 342.584 899.565 344.065 901.192 345.106C902.819 346.115 904.738 346.619 906.951 346.619C909.099 346.619 910.97 346.082 912.564 345.009C914.158 343.902 915.313 342.259 916.029 340.079L919.934 341.543ZM904.169 349.596L906.219 348.376C908.139 348.994 909.505 349.824 910.319 350.865C911.132 351.939 911.539 353.192 911.539 354.624C911.539 356.186 910.986 357.52 909.88 358.626C908.773 359.732 907.358 360.285 905.633 360.285C904.624 360.285 903.73 360.155 902.949 359.895C902.2 359.635 901.55 359.293 900.996 358.87L901.924 356.039C902.379 356.332 902.851 356.592 903.339 356.82C903.86 357.048 904.478 357.162 905.194 357.162C906.105 357.162 906.853 356.869 907.439 356.283C908.025 355.698 908.318 354.851 908.318 353.745C908.318 352.899 908.009 352.167 907.39 351.549C906.772 350.931 905.698 350.28 904.169 349.596Z" fill="black"/>
<path d="M960.911 317.09C963.969 317.09 966.605 317.773 968.818 319.14C971.063 320.474 972.788 322.378 973.992 324.851C975.228 327.324 975.846 330.268 975.846 333.685C975.846 337.102 975.228 340.046 973.992 342.519C972.788 344.992 971.063 346.912 968.818 348.279C966.605 349.613 963.969 350.28 960.911 350.28C957.852 350.28 955.2 349.613 952.955 348.279C950.742 346.912 949.018 344.992 947.781 342.519C946.578 340.046 945.976 337.102 945.976 333.685C945.976 330.268 946.578 327.324 947.781 324.851C949.018 322.378 950.742 320.474 952.955 319.14C955.2 317.773 957.852 317.09 960.911 317.09ZM960.911 320.751C958.698 320.751 956.778 321.271 955.151 322.313C953.524 323.321 952.272 324.802 951.393 326.754C950.515 328.674 950.076 330.984 950.076 333.685C950.076 336.386 950.515 338.712 951.393 340.665C952.272 342.584 953.524 344.065 955.151 345.106C956.778 346.115 958.698 346.619 960.911 346.619C963.156 346.619 965.076 346.115 966.67 345.106C968.297 344.065 969.55 342.584 970.428 340.665C971.307 338.712 971.746 336.386 971.746 333.685C971.746 330.984 971.307 328.674 970.428 326.754C969.55 324.802 968.297 323.321 966.67 322.313C965.076 321.271 963.156 320.751 960.911 320.751ZM969.696 306.987C969.599 308.419 969.322 309.622 968.867 310.599C968.444 311.575 967.842 312.307 967.061 312.795C966.312 313.283 965.369 313.527 964.23 313.527C963.319 313.527 962.538 313.364 961.887 313.039C961.269 312.681 960.732 312.291 960.276 311.868C959.821 311.445 959.365 311.07 958.91 310.745C958.487 310.387 958.015 310.208 957.494 310.208C956.779 310.208 956.241 310.517 955.884 311.136C955.526 311.721 955.265 312.535 955.103 313.576H952.028C952.19 311.428 952.711 309.801 953.59 308.695C954.501 307.589 955.819 307.036 957.543 307.036C958.422 307.036 959.17 307.215 959.788 307.573C960.439 307.898 960.992 308.272 961.448 308.695C961.936 309.118 962.391 309.509 962.814 309.867C963.237 310.192 963.693 310.355 964.181 310.355C964.929 310.355 965.483 310.062 965.841 309.476C966.198 308.858 966.459 308.028 966.621 306.987H969.696Z" fill="black"/>
<path d="M1004.94 349.792V317.578H1027.54V321.239H1008.84V331.635H1023.39V335.296H1008.84V346.131H1028.27V349.792H1004.94Z" fill="black"/>
<path d="M1066.91 317.09C1069.74 317.09 1072.18 317.676 1074.23 318.847C1076.28 319.986 1077.99 321.678 1079.36 323.923L1076.09 326.461C1074.88 324.379 1073.52 322.915 1071.99 322.069C1070.49 321.19 1068.67 320.751 1066.52 320.751C1064.79 320.751 1063.36 320.995 1062.22 321.483C1061.12 321.971 1060.3 322.622 1059.78 323.435C1059.26 324.216 1059 325.111 1059 326.12C1059 327.259 1059.36 328.267 1060.08 329.146C1060.79 329.992 1062.22 330.659 1064.37 331.147L1071.35 332.709C1074.44 333.392 1076.59 334.433 1077.79 335.833C1079.03 337.199 1079.65 338.907 1079.65 340.957C1079.65 342.78 1079.13 344.407 1078.09 345.838C1077.08 347.237 1075.65 348.327 1073.79 349.108C1071.94 349.889 1069.76 350.28 1067.25 350.28C1064.91 350.28 1062.84 349.971 1061.05 349.352C1059.3 348.702 1057.78 347.839 1056.51 346.766C1055.24 345.692 1054.2 344.488 1053.39 343.154L1056.81 340.372C1057.42 341.608 1058.22 342.698 1059.2 343.642C1060.17 344.585 1061.35 345.318 1062.71 345.838C1064.11 346.359 1065.71 346.619 1067.5 346.619C1069.16 346.619 1070.59 346.424 1071.79 346.033C1073.03 345.61 1073.97 345.009 1074.62 344.228C1075.27 343.414 1075.6 342.438 1075.6 341.299C1075.6 340.258 1075.26 339.33 1074.57 338.517C1073.89 337.671 1072.6 337.036 1070.72 336.613L1063.15 334.905C1061.17 334.45 1059.56 333.831 1058.32 333.05C1057.12 332.237 1056.24 331.293 1055.68 330.22C1055.16 329.113 1054.9 327.926 1054.9 326.657C1054.9 324.932 1055.38 323.354 1056.32 321.922C1057.29 320.458 1058.68 319.287 1060.47 318.408C1062.29 317.529 1064.44 317.09 1066.91 317.09Z" fill="black"/>
</svg>
